# xmcd
#
# Track frame offsets:
#  150
#  26145
#  41082
#  56600
#  76527
#  99150
#  112130
#  136522
#  157622
#  176990
#
# Disc length: 2616 seconds
#
# Revision: 3
# Processed by: cddbd v1.5.1PL2 Copyright (c) Steve Scherf et al.
# Submitted via: Collectorz.com_Music_Collector 6.9
#
DISCID=710a360a
DTITLE=Johnny Adams - Walking On A Tightrope: The Songs of Percy Mayfield
DYEAR=1989
DGENRE=Blues - Rhythm and Blues
TTITLE0=Walking On A Tightrope
TTITLE1=Lost Mind
TTITLE2=Stand By
TTITLE3=My Heart Is Hangin' Heavy
TTITLE4=Danger Zone
TTITLE5=Never No More
TTITLE6=The Lover And The Married Woman
TTITLE7=You're In For A Big Surprise
TTITLE8=Look The Whole World Over
TTITLE9=Baby Please
EXTD=
EXTT0=
EXTT1=
EXTT2=
EXTT3=
EXTT4=
EXTT5=
EXTT6=
EXTT7=
EXTT8=
EXTT9=
PLAYORDER=
